# xmcd
#
# Track frame offsets:
#	150
#	16010
#	27910
#	45270
#	63595
#	78280
#	93907
#	109620
#	126330
#	144825
#	160095
#	173165
#	187455
#	203307
#	219150
#	231090
#	248140
#	261915
#	278210
#	291510
#
# Disc length: 4088 seconds
# Revision: 6
# Processed by: cddbd v1.5.2PL0 Copyright (c) Steve Scherf et al.
# Submitted via: dBpowerAMP V12.0
#
DISCID=100ff614
DTITLE=Tanya Tucker - 20 Greatest Hits
DYEAR=2000
DGENRE=Country
TTITLE0=Black Water Bayou (Previously Unreleased)
TTITLE1=Walking Shoes
TTITLE2=Some Kind Of Trouble
TTITLE3=Little Things
TTITLE4=Don't Go Out
TTITLE5=Soon
TTITLE6=Down To My Last Teardrop
TTITLE7=Tell Me About It (with Delbert McClinton)
TTITLE8=Two Sparrows In A Hurricane
TTITLE9=Hangin' In
TTITLE10=It Won't Be Me
TTITLE11=I'll Take Today
TTITLE12=Oh What It Did To Me
TTITLE13=My Arms Stay Open All Night
TTITLE14=It's A Little Too Late
TTITLE15=We Don't Have To Do This
TTITLE16=If Your Heart Ain't Busy Tonight
TTITLE17=Right About Now
TTITLE18=(Without You) What Do I Do With Me
TTITLE19=Delta Dawn
EXTD=
EXTT0=
EXTT1=
EXTT2=
EXTT3=
EXTT4=
EXTT5=
EXTT6=
EXTT7=
EXTT8=
EXTT9=
EXTT10=
EXTT11=
EXTT12=
EXTT13=
EXTT14=
EXTT15=
EXTT16=
EXTT17=
EXTT18=
EXTT19=
PLAYORDER=
